<svg xmlns="http://www.w3.org/2000/svg" viewBox="0 0 600 400" width="600" height="400">
  <rect width="600" height="400" fill="#FAFAF9"></rect>
  <g font-family="JetBrains Mono, monospace" font-size="11" fill="#22211E">
    <g stroke="#B5B3AC" stroke-width="1.25" fill="none">
      <path d="M150 80 L300 200" marker-end="url(#arrow)"></path>
      <path d="M450 80 L300 200" marker-end="url(#arrow)"></path>
      <path d="M300 200 L150 320" marker-end="url(#arrow)"></path>
      <path d="M300 200 L450 320" marker-end="url(#arrow)"></path>
      <path d="M300 200 L300 320" marker-end="url(#arrow)" stroke="#2EA862" stroke-width="1.5"></path>
    </g>
    <defs>
      <marker id="arrow" viewBox="0 0 10 10" refX="9" refY="5" markerWidth="6" markerHeight="6" orient="auto">
        <path d="M 0 0 L 10 5 L 0 10 z" fill="#B5B3AC"></path>
      </marker>
    </defs>

    <g>
      <rect x="80" y="50" width="140" height="56" rx="6" fill="#FFFFFF" stroke="#D6D5D0"></rect>
      <text x="96" y="74" font-weight="600">api-gateway</text>
      <text x="96" y="92" fill="#5F5C56">v3.2 · go</text>
    </g>
    <g>
      <rect x="380" y="50" width="140" height="56" rx="6" fill="#FFFFFF" stroke="#D6D5D0"></rect>
      <text x="396" y="74" font-weight="600">web-app</text>
      <text x="396" y="92" fill="#5F5C56">v8.0 · ts</text>
    </g>

    <g>
      <rect x="230" y="180" width="140" height="56" rx="6" fill="#E2F3E9" stroke="#2EA862"></rect>
      <text x="246" y="204" font-weight="600">auth-service</text>
      <text x="246" y="222" fill="#5F5C56">v1.4 · rust</text>
    </g>

    <g>
      <rect x="80" y="290" width="140" height="56" rx="6" fill="#FFFFFF" stroke="#D6D5D0"></rect>
      <text x="96" y="314" font-weight="600">user-store</text>
      <text x="96" y="332" fill="#5F5C56">v2.1 · postgres</text>
    </g>
    <g>
      <rect x="230" y="290" width="140" height="56" rx="6" fill="#FFFFFF" stroke="#D6D5D0"></rect>
      <text x="246" y="314" font-weight="600">session-cache</text>
      <text x="246" y="332" fill="#5F5C56">v1.0 · redis</text>
    </g>
    <g>
      <rect x="380" y="290" width="140" height="56" rx="6" fill="#FFFFFF" stroke="#D6D5D0"></rect>
      <text x="396" y="314" font-weight="600">audit-log</text>
      <text x="396" y="332" fill="#5F5C56">v1.2 · kafka</text>
    </g>
  </g>

  <text x="40" y="380" font-family="JetBrains Mono, monospace" font-size="10" font-weight="500" letter-spacing="1.5" fill="#5F5C56">SERVICE GRAPH — AUTH PATH</text>
</svg>
